<?xml version="1.0" encoding="UTF-8"?>
<svg id="Layer_1" data-name="Layer 1" xmlns="http://www.w3.org/2000/svg" viewBox="0 0 512 512">
  <defs>
    <style>
      .cls-1 {
        fill: #89b4cc;
      }

      .cls-2 {
        fill: #bac6cc;
      }

      .cls-3 {
        fill: #78afce;
      }

      .cls-4 {
        fill: #97cdf2;
      }

      .cls-5 {
        fill: #83c2ed;
      }

      .cls-6 {
        fill: #a5bfce;
      }

      .cls-7 {
        fill: #8abbd6;
      }

      .cls-8 {
        fill: #b7d5ea;
      }

      .cls-9 {
        fill: #d3e1ea;
      }

      .cls-10 {
        fill: #9bcaea;
      }

      .cls-11 {
        fill: #d9d9d9;
      }
    </style>
  </defs>
  <path class="cls-5" d="M334.32,206.42c-6.66-3.98-14.37-5.96-21.92-7.56-4.48-.95-15.64-4.78-16.43,2.05-1.34,11.57,1.55,20.31-3.05,32.33-7.65,19.98-24.33,23.09-39.88,33.98-15.94,11.16-10.36,25.43-11.94,41.4-.98,9.92-10.96,17.85-20.78,17.74-8.85-.1-30.35-5.76-38.21-10.03-16.38-8.9-10.42-22.24-12.83-37.94v-55.43c1.45-9.67-.71-20.94,6.92-28.47,8.44-8.32,35.17-14.72,46.72-13.85,9.03.68,17.42,8.68,18.2,17.7.54,6.19.83,23.92-.14,29.64-1.21,7.09-12.2,13.17-15.12,3.06-2.36-8.21.4-21.73-.65-30.64-.53-4.55-4.42-4.11-7.89-3.76-6.48.66-25.04,4.57-29.54,8.92-.92.89-1.17,1.42-1.44,2.66-.78,3.53-1.02,9.91-1.17,13.7-.78,19.62-.23,39.93.56,59.49.25,6.3-.11,12.65,1.11,18.89,5.4,4.02,12.69,5.84,19.28,7.39,3.03.71,12.69,3.01,15.18,2.72,1.18-.14,3.47-1.81,3.79-2.92,1-3.41-.16-13.46.08-17.87.81-14.48,6.59-26.82,18.53-35.32,13.2-9.39,32.12-13.21,35.71-31.47,2.84-14.44-5.02-34.16,14.15-40.73,10.15-3.48,41.24,4.57,49.83,11.39,11.16,8.86,6.24,23.18,8.5,35.61v55.43c-1.46,12.88,1.15,23.45-11.35,31.22-9.21,5.73-36.55,13.04-46.62,9.77-6.63-2.15-13.09-9.3-13.86-16.39-.61-5.64-.77-24.34.13-29.63.52-3.08,4.67-8.12,7.87-8.56,3.94-.55,7.18,3.42,7.79,7.02,1.42,8.46-.91,19.91.11,28.61.3,2.54,2.23,4.13,4.78,4.17,4.44.07,15.82-2.74,20.47-4.07,3.16-.91,10.06-2.98,12.22-5.22,3.13-3.27,1.27-11.57,2.57-15.9-.4-26.4,1.05-52.91-1.68-79.14Z"/>
  <circle class="cls-1" cx="304.38" cy="402.48" r="27.29"/>
  <circle class="cls-10" cx="374.58" cy="352.9" r="27.29"/>
  <circle class="cls-6" cx="406.83" cy="273.23" r="27.29"/>
  <circle class="cls-8" cx="390.9" cy="188.78" r="27.29"/>
  <circle class="cls-2" cx="331.83" cy="126.35" r="27.29"/>
  <circle class="cls-9" cx="248.39" cy="105.76" r="27.29"/>
  <circle class="cls-11" cx="167.06" cy="133.56" r="27.29"/>
  <circle class="cls-3" cx="113.67" cy="200.91" r="27.29"/>
  <circle class="cls-5" cx="105.17" cy="286.43" r="27.29"/>
  <circle class="cls-7" cx="144.26" cy="362.97" r="27.29"/>
  <circle class="cls-4" cx="218.52" cy="406.23" r="27.29"/>
</svg>